<svg width="25" height="24" viewBox="0 0 25 24" fill="none" xmlns="http://www.w3.org/2000/svg">
<path d="M22.9167 8.52V3.98C22.9167 2.57 22.25 2 20.5938 2H16.3854C14.7292 2 14.0625 2.57 14.0625 3.98V8.51C14.0625 9.93 14.7292 10.49 16.3854 10.49H20.5938C22.25 10.5 22.9167 9.93 22.9167 8.52Z" stroke="#292D32" stroke-width="1.5" stroke-linecap="round" stroke-linejoin="round"/>
<path d="M22.9167 19.77V15.73C22.9167 14.14 22.25 13.5 20.5938 13.5H16.3854C14.7292 13.5 14.0625 14.14 14.0625 15.73V19.77C14.0625 21.36 14.7292 22 16.3854 22H20.5938C22.25 22 22.9167 21.36 22.9167 19.77Z" stroke="#292D32" stroke-width="1.5" stroke-linecap="round" stroke-linejoin="round"/>
<path d="M10.9377 8.52V3.98C10.9377 2.57 10.271 2 8.61475 2H4.40641C2.75016 2 2.0835 2.57 2.0835 3.98V8.51C2.0835 9.93 2.75016 10.49 4.40641 10.49H8.61475C10.271 10.5 10.9377 9.93 10.9377 8.52Z" stroke="#292D32" stroke-width="1.5" stroke-linecap="round" stroke-linejoin="round"/>
<path d="M10.9377 19.77V15.73C10.9377 14.14 10.271 13.5 8.61475 13.5H4.40641C2.75016 13.5 2.0835 14.14 2.0835 15.73V19.77C2.0835 21.36 2.75016 22 4.40641 22H8.61475C10.271 22 10.9377 21.36 10.9377 19.77Z" stroke="#292D32" stroke-width="1.5" stroke-linecap="round" stroke-linejoin="round"/>
</svg>
