<svg width="25" height="24" viewBox="0 0 25 24" fill="none" xmlns="http://www.w3.org/2000/svg">
<path d="M12.6249 12.78C12.552 12.77 12.4583 12.77 12.3749 12.78C10.5416 12.72 9.08325 11.28 9.08325 9.51001C9.08325 7.70001 10.6041 6.23001 12.4999 6.23001C14.3853 6.23001 15.9166 7.70001 15.9166 9.51001C15.9062 11.28 14.4583 12.72 12.6249 12.78Z" stroke="#292D32" stroke-width="1.5" stroke-linecap="round" stroke-linejoin="round"/>
<path d="M19.5209 19.38C17.6667 21.01 15.2084 22 12.5001 22C9.79175 22 7.33341 21.01 5.47925 19.38C5.58341 18.44 6.20841 17.52 7.323 16.8C10.1772 14.98 14.8438 14.98 17.6772 16.8C18.7917 17.52 19.4167 18.44 19.5209 19.38Z" stroke="#292D32" stroke-width="1.5" stroke-linecap="round" stroke-linejoin="round"/>
<path d="M12.4999 22C18.2529 22 22.9166 17.5228 22.9166 12C22.9166 6.47715 18.2529 2 12.4999 2C6.74695 2 2.08325 6.47715 2.08325 12C2.08325 17.5228 6.74695 22 12.4999 22Z" stroke="#292D32" stroke-width="1.5" stroke-linecap="round" stroke-linejoin="round"/>
</svg>
