<svg width="25" height="24" viewBox="0 0 25 24" fill="none" xmlns="http://www.w3.org/2000/svg">
<path d="M9.03117 14H4.16659C3.02075 14 2.08325 14.9 2.08325 16V22H9.03117V14Z" stroke="#292D32" stroke-width="1.5" stroke-miterlimit="10" stroke-linecap="round" stroke-linejoin="round"/>
<path d="M13.8853 10H11.1041C9.95825 10 9.02075 10.9 9.02075 12V22H15.9687V12C15.9687 10.9 15.0416 10 13.8853 10Z" stroke="#292D32" stroke-width="1.5" stroke-miterlimit="10" stroke-linecap="round" stroke-linejoin="round"/>
<path d="M20.8333 17H15.9688V22H22.9167V19C22.9167 17.9 21.9792 17 20.8333 17Z" stroke="#292D32" stroke-width="1.5" stroke-miterlimit="10" stroke-linecap="round" stroke-linejoin="round"/>
<path d="M13.0417 2.07001L13.5937 3.13C13.6667 3.28 13.8646 3.42 14.0312 3.44L15.0312 3.60001C15.6667 3.70001 15.8229 4.14999 15.3646 4.57999L14.5833 5.32999C14.4479 5.45999 14.375 5.69999 14.4167 5.86999L14.6354 6.79001C14.8125 7.52001 14.4062 7.80001 13.7396 7.42001L12.8021 6.89001C12.6354 6.79001 12.3542 6.79001 12.1875 6.89001L11.25 7.42001C10.5833 7.80001 10.1771 7.52001 10.3542 6.79001L10.5729 5.86999C10.6146 5.69999 10.5417 5.44999 10.4062 5.32999L9.63541 4.59C9.17708 4.15 9.32291 3.70998 9.96874 3.60998L10.9687 3.45001C11.1354 3.42001 11.3333 3.28001 11.4062 3.14001L11.9583 2.07999C12.2604 1.49999 12.7396 1.50001 13.0417 2.07001Z" stroke="#292D32" stroke-width="1.5" stroke-linecap="round" stroke-linejoin="round"/>
</svg>
